<svg width="118" height="11" viewBox="0 0 118 11" fill="none" xmlns="http://www.w3.org/2000/svg">
<path d="M4.08984 3.33203C4.08398 5.21875 5.29688 7.11719 6.80859 7.80859L6.25781 8.55859C5.07422 7.94922 4.0957 6.70703 3.63281 5.22461C3.16992 6.7832 2.19141 8.11914 1.00781 8.74609L0.410156 8.00781C1.93945 7.25781 3.14648 5.25391 3.15234 3.33203V1.43359H4.08984V3.33203ZM5.67188 4.84375V4.09375H8.14453V0.53125H9.05859V10.9727H8.14453V4.84375H5.67188ZM15.2191 0.660156C17.5335 0.660156 18.8929 1.30469 18.8988 2.46484C18.8929 3.63672 17.5335 4.27539 15.2191 4.28125C12.8929 4.27539 11.5277 3.63672 11.5277 2.46484C11.5277 1.30469 12.8929 0.660156 15.2191 0.660156ZM10.473 5.71094V4.97266H19.9652V5.71094H15.6644V6.69531H18.7464V9.02734H12.5589V10.1055H19.0628V10.832H11.6448V8.34766H17.8441V7.39844H11.6214V6.69531H14.7503V5.71094H10.473ZM12.4886 2.46484C12.4769 3.17969 13.4905 3.56641 15.2191 3.57812C16.9476 3.56641 17.9554 3.17969 17.9613 2.46484C17.9554 1.7793 16.9476 1.375 15.2191 1.36328C13.4905 1.375 12.4769 1.7793 12.4886 2.46484ZM26.8017 2.17188C26.79 3.66016 27.8505 4.9668 29.3798 5.48828L28.8642 6.20312C27.7158 5.77539 26.8134 4.92578 26.3623 3.83008C25.917 5.07812 24.9677 6.04492 23.708 6.51953L23.2041 5.76953C24.8095 5.20703 25.8759 3.82422 25.8877 2.20703V1.12891H26.8017V2.17188ZM24.9033 8.98047C24.8974 7.72656 26.2275 7.00586 28.3955 7.01172C30.5576 7.00586 31.8877 7.72656 31.8877 8.98047C31.8877 10.2227 30.5576 10.9258 28.3955 10.9258C26.2275 10.9258 24.8974 10.2227 24.9033 8.98047ZM25.8173 8.98047C25.8115 9.73633 26.7959 10.1934 28.3955 10.1875C29.9892 10.1934 30.9736 9.73633 30.9736 8.98047C30.9736 8.20117 29.9892 7.73828 28.3955 7.73828C26.7959 7.73828 25.8115 8.20117 25.8173 8.98047ZM28.6064 3.53125V2.76953H30.9267V0.53125H31.8525V6.70703H30.9267V3.53125H28.6064ZM42.7591 5.64062V6.39062H38.4583V7.62109H41.5872V10.9492H40.6614V8.37109H34.3216V7.62109H37.5559V6.39062H33.2669V5.64062H42.7591ZM34.5325 4.66797V0.777344H35.4466V1.98438H40.6028V0.777344H41.5169V4.66797H34.5325ZM35.4466 3.92969H40.6028V2.6875H35.4466V3.92969ZM51.5563 1.21094V2.125C51.5563 3.10938 51.5563 4.19336 51.2574 5.6875H52.8102V6.44922H48.5094V10.9727H47.5836V6.44922H43.318V5.6875H50.3258C50.6422 4.1875 50.6422 3.09766 50.6422 2.125V1.97266H44.5133V1.21094H51.5563ZM64.2053 0.53125V3.70703H65.7756V4.48047H64.2053V8.21875H63.2912V0.53125H64.2053ZM56.26 3.83594C56.2541 2.32422 57.4377 1.27539 58.9905 1.26953C60.5549 1.27539 61.7209 2.32422 61.7327 3.83594C61.7209 5.3418 60.5549 6.40234 58.9905 6.40234C57.4377 6.40234 56.2541 5.3418 56.26 3.83594ZM57.1623 3.83594C57.1565 4.86133 57.9592 5.59375 58.9905 5.59375C60.0393 5.59375 60.8245 4.86133 60.8303 3.83594C60.8245 2.80469 60.0393 2.07812 58.9905 2.07812C57.9592 2.07812 57.1565 2.80469 57.1623 3.83594ZM57.6897 10.7266V7.42188H58.592V9.95312H64.6858V10.7266H57.6897ZM74.2564 0.53125V3.10938H75.8267V3.85938H74.2564V6.56641H73.3423V0.53125H74.2564ZM66.3111 3.61328C66.3052 2.16016 67.4654 1.1582 69.0416 1.16406C70.6295 1.1582 71.772 2.16016 71.7838 3.61328C71.772 5.06055 70.6295 6.05664 69.0416 6.0625C67.4654 6.05664 66.3052 5.06055 66.3111 3.61328ZM67.2134 3.61328C67.2076 4.59766 67.9869 5.27734 69.0416 5.28906C70.108 5.27734 70.8755 4.59766 70.8814 3.61328C70.8755 2.63477 70.108 1.9375 69.0416 1.94922C67.9869 1.9375 67.2076 2.63477 67.2134 3.61328ZM67.6822 10.8086V7.05859H74.2564V10.8086H67.6822ZM68.5845 10.0586H73.3423V7.80859H68.5845V10.0586ZM85.702 8.88672V9.66016H76.163V8.88672H80.452V6.91797H77.3583V3.70703H83.5927V2.06641H77.3348V1.30469H84.495V4.45703H78.2723V6.15625H84.7411V6.91797H81.3544V8.88672H85.702ZM89.5503 10L93.4409 2.51172V2.45312H88.9527V1.51562H94.5308V2.5L90.6519 10H89.5503ZM98.3123 10.1172C96.6248 10.1172 95.412 9.21484 95.3592 7.86719H96.4256C96.4842 8.67578 97.287 9.17969 98.3006 9.17969C99.4198 9.17969 100.228 8.57617 100.234 7.69141C100.228 6.76562 99.4901 6.11523 98.1717 6.10938H97.4803V5.18359H98.1717C99.203 5.18359 99.9237 4.60352 99.9178 3.73047C99.9237 2.88086 99.3026 2.31836 98.3358 2.3125C97.4276 2.31836 96.6014 2.81641 96.5545 3.64844H95.535C95.5877 2.30078 96.8416 1.39844 98.3475 1.39844C99.9647 1.39844 100.949 2.45898 100.937 3.67188C100.949 4.63867 100.387 5.3418 99.4959 5.59375V5.65234C100.603 5.82227 101.271 6.61328 101.265 7.69141C101.271 9.08594 100.006 10.1172 98.3123 10.1172ZM106.125 5.91016V6.83594H102.41V5.91016H106.125ZM110.34 1.51562V10H109.274V2.61719H109.227L107.165 3.98828V2.92188L109.274 1.51562H110.34ZM115.048 10.1172C113.518 10.1172 112.358 9.17383 112.294 7.86719H113.313C113.389 8.62305 114.128 9.18555 115.048 9.19141C116.149 9.18555 116.946 8.38281 116.946 7.31641C116.946 6.21484 116.12 5.40039 114.977 5.39453C114.262 5.38281 113.706 5.60547 113.395 6.15625H112.376L112.973 1.51562H117.567V2.45312H113.852L113.536 4.9375H113.618C113.999 4.64453 114.567 4.44531 115.165 4.44531C116.782 4.44531 117.971 5.64062 117.977 7.29297C117.971 8.93359 116.741 10.1172 115.048 10.1172Z" fill="#424242"/>
</svg>
