<svg width="248" height="17" viewBox="0 0 248 17" fill="none" xmlns="http://www.w3.org/2000/svg">
<path d="M13.5 2.13281V3.66211C13.4824 5.63965 13.4824 7.8457 12.8672 11.168L10.8984 10.957C11.5225 7.86328 11.5225 5.60449 11.5312 3.69727H2.03906V2.13281H13.5ZM0.527344 14.5078V12.9082H5.87109V7.38867H7.80469V12.9082H15.0117V14.5078H0.527344ZM29.0706 0.673828V16.582H27.1195V10.0605H24.2191V8.46094H27.1195V5.73633H24.2718V4.13672H27.1195V0.673828H29.0706ZM16.2913 3.60938V2.04492H23.3753V7.98633H18.2777V11.3613C20.3782 11.3525 22.1976 11.2559 24.3421 10.9395L24.5003 12.5391C22.0657 12.9258 20.0443 12.9785 17.5745 12.9785H16.3441V6.45703H21.4593V3.60938H16.2913ZM44.6764 0.673828V16.5645H42.8131V8.46094H41.0202V15.7559H39.2272V0.972656H41.0202V6.89648H42.8131V0.673828H44.6764ZM31.4928 12.8555V2.55469H37.4342V4.13672H33.4616V11.2031C35.1842 11.1855 36.608 11.0977 38.2252 10.7988L38.3659 12.3984C36.4411 12.7852 34.7799 12.8379 32.5651 12.8555H31.4928ZM55.6767 2.20312V3.75H46.2548V2.20312H49.999V0.603516H51.9502V2.20312H55.6767ZM47.0634 7.26562C47.0634 5.52539 48.6718 4.36523 50.9658 4.36523C53.2597 4.36523 54.8418 5.52539 54.8505 7.26562C54.8418 9.00586 53.2597 10.166 50.9658 10.166C48.6718 10.166 47.0634 9.00586 47.0634 7.26562ZM48.1884 12.9258V11.3613H58.7705V16.5645H56.8193V12.9258H48.1884ZM48.9619 7.26562C48.9531 8.16211 49.7617 8.66309 50.9658 8.6543C52.1699 8.66309 52.9873 8.16211 52.9873 7.26562C52.9873 6.36914 52.1699 5.8418 50.9658 5.8418C49.7617 5.8418 48.9531 6.36914 48.9619 7.26562ZM56.8193 10.623V0.673828H58.7705V4.89258H60.9853V6.49219H58.7705V10.623H56.8193ZM74.4993 2.13281V3.75C74.4993 5.72754 74.4993 7.85449 73.9192 10.9746L72.0032 10.7812C72.5481 7.83691 72.5481 5.6748 72.5481 3.75V3.69727H62.9329V2.13281H74.4993ZM61.4739 14.5078V12.9082H64.7259V7.8457H66.677V12.9082H68.6985V7.8457H70.6145V12.9082H75.9583V14.5078H61.4739ZM86.5331 4.48828C86.5243 7.44141 87.9394 10.3418 90.4706 11.4492L89.2929 13.0137C87.4999 12.1348 86.2343 10.4473 85.5575 8.36426C84.8632 10.5615 83.5624 12.3896 81.7343 13.3125L80.5038 11.7305C83.0966 10.5176 84.538 7.45898 84.5468 4.48828V1.95703H86.5331V4.48828ZM88.7128 7.38867V5.80664H92.0527V0.673828H93.9863V16.582H92.0527V7.38867H88.7128ZM103.123 0.832031C106.744 0.84082 108.845 1.80762 108.854 3.55664C108.845 5.33203 106.744 6.29004 103.123 6.29883C99.511 6.29004 97.3928 5.33203 97.3928 3.55664C97.3928 1.80762 99.511 0.84082 103.123 0.832031ZM95.8987 8.6543V7.125H110.383V8.6543H104.09V9.86719H108.573V13.752H99.5373V14.9297H109.012V16.4238H97.6213V12.3633H106.656V11.3086H97.6038V9.86719H102.139V8.6543H95.8987ZM99.4495 3.55664C99.4407 4.43555 100.706 4.83984 103.123 4.85742C105.575 4.83984 106.832 4.43555 106.832 3.55664C106.832 2.73926 105.575 2.2998 103.123 2.29102C100.706 2.2998 99.4407 2.73926 99.4495 3.55664ZM118.202 1.69336C118.193 5.70996 116.453 8.62793 112.067 10.4297L111.135 8.98828C113.122 8.21484 114.449 7.23047 115.266 6.04395L111.487 6.43945L111.223 4.875L115.961 4.61133C116.101 4.18945 116.198 3.75 116.251 3.29297H111.926V1.69336H118.202ZM114.001 16.3711V10.6406H124.723V16.3711H114.001ZM115.934 14.7891H122.807V12.2051H115.934V14.7891ZM119.344 9.88477V0.990234H121.19V4.48828H122.86V0.691406H124.723V10.0078H122.86V6.10547H121.19V9.88477H119.344ZM135.583 2.16797V3.75H133.948V11.0098C134.66 10.957 135.354 10.8955 136.022 10.8164L136.128 12.2227C132.902 12.7764 129.211 12.8379 126.477 12.8379L126.284 11.2207C126.873 11.2119 127.515 11.2119 128.183 11.2031V3.75H126.741V2.16797H135.583ZM130.099 11.168C130.749 11.1592 131.408 11.1328 132.067 11.1064V3.75H130.099V11.168ZM135.091 8.10938V6.52734H137.763V0.673828H139.696V16.5645H137.763V8.10938H135.091ZM149.818 2.85352C149.818 5.30566 152.217 7.77539 155.548 8.35547L154.669 9.99023C152.006 9.43652 149.826 7.81934 148.789 5.68359C147.743 7.80176 145.564 9.42773 142.909 9.99023L142.048 8.35547C145.326 7.75781 147.735 5.29688 147.743 2.85352V1.67578H149.818V2.85352ZM141.609 14.543V12.9258H156.128V14.543H141.609ZM160.431 1.88672C162.541 1.87793 163.912 4.04883 163.929 7.54688C163.912 11.0537 162.541 13.2334 160.431 13.2246C158.357 13.2334 157.003 11.0537 157.003 7.54688C157.003 4.04883 158.357 1.87793 160.431 1.88672ZM158.814 7.54688C158.805 10.0342 159.42 11.3701 160.431 11.3613C161.486 11.3701 162.11 10.0342 162.119 7.54688C162.11 5.06836 161.486 3.72363 160.431 3.73242C159.42 3.72363 158.805 5.06836 158.814 7.54688ZM165.142 15.791V0.955078H166.988V6.80859H168.675V0.673828H170.556V16.5645H168.675V8.42578H166.988V15.791H165.142ZM185.353 0.673828V16.5645H183.385V0.673828H185.353ZM172.187 12.1875C176.353 10.21 178.269 7.52051 178.621 3.9082H172.996V2.36133H180.607C180.607 7.08984 178.77 11.1064 173.207 13.752L172.187 12.1875ZM200.168 4.80469V6.38672H189.199V0.955078H191.151V4.80469H200.168ZM187.319 9.49805V7.91602H201.82V9.49805H187.319ZM189.006 13.5762C189.006 11.7041 191.089 10.6494 194.543 10.6406C197.971 10.6494 200.036 11.7041 200.045 13.5762C200.036 15.4395 197.971 16.4941 194.543 16.4941C191.089 16.4941 189.006 15.4395 189.006 13.5762ZM190.992 13.5762C190.984 14.4902 192.232 14.9912 194.543 15C196.819 14.9912 198.076 14.4902 198.094 13.5762C198.076 12.6357 196.819 12.1787 194.543 12.1699C192.232 12.1787 190.984 12.6357 190.992 13.5762ZM207.512 3.62695C207.521 5.34082 208.523 7.07227 210.606 7.86328L209.569 9.35742C208.154 8.82129 207.169 7.80176 206.598 6.57129C206.018 7.98633 204.981 9.19922 203.469 9.83203L202.415 8.33789C204.603 7.37109 205.623 5.38477 205.631 3.62695V1.6582H207.512V3.62695ZM205.333 13.6113C205.324 11.7832 207.433 10.6934 210.782 10.6934C214.104 10.6934 216.222 11.7832 216.231 13.6113C216.222 15.4482 214.104 16.5469 210.782 16.5469C207.433 16.5469 205.324 15.4482 205.333 13.6113ZM207.284 13.6113C207.275 14.5518 208.576 15.0615 210.782 15.0527C212.953 15.0615 214.253 14.5518 214.262 13.6113C214.253 12.6797 212.953 12.1699 210.782 12.1699C208.576 12.1699 207.275 12.6797 207.284 13.6113ZM210.87 9.9375V0.990234H212.698V4.69922H214.28V0.691406H216.143V10.4297H214.28V6.29883H212.698V9.9375H210.87ZM230.378 0.673828V4.54102H232.522V6.17578H230.378V10.0254H228.427V0.673828H230.378ZM217.651 8.42578C218.846 8.42578 220.226 8.42578 221.659 8.39062V7.59082C219.875 7.40625 218.767 6.67676 218.776 5.50781C218.767 4.22461 220.279 3.46875 222.608 3.46875C224.937 3.46875 226.44 4.22461 226.44 5.50781C226.44 6.65918 225.359 7.39746 223.61 7.58203V8.32031C224.964 8.25 226.326 8.14453 227.6 7.96875L227.759 9.19922C224.357 9.77051 220.631 9.79688 217.862 9.79688L217.651 8.42578ZM218.055 3.08203V1.74609H221.659V0.550781H223.61V1.74609H227.179V3.08203H218.055ZM219.761 11.9766V10.6582H230.378V14.0859H221.747V15.1055H230.94V16.4238H219.796V12.873H228.427V11.9766H219.761ZM220.657 5.50781C220.639 6.0791 221.378 6.38672 222.608 6.38672C223.839 6.38672 224.577 6.0791 224.577 5.50781C224.577 4.98047 223.839 4.70801 222.608 4.69922C221.378 4.70801 220.639 4.98047 220.657 5.50781ZM241.905 1.85156V2.80078C241.888 3.88184 241.888 5.46387 241.519 7.47656L239.585 7.30078C239.901 5.66602 239.963 4.44434 239.981 3.46875H233.802V1.85156H241.905ZM232.853 8.74219C233.793 8.7334 234.848 8.72461 235.964 8.70703V5.47266H237.898V8.64551C239.541 8.5752 241.229 8.45215 242.767 8.23242L242.872 9.63867C239.568 10.2363 235.815 10.2979 233.028 10.3066L232.853 8.74219ZM235.226 16.248V11.5195H237.194V14.666H246.212V16.248H235.226ZM243.698 12.5742V0.673828H245.702V5.63086H247.759V7.26562H245.702V12.5742H243.698Z" fill="#424242"/>
</svg>
