<svg width="41" height="11" viewBox="0 0 41 11" fill="none" xmlns="http://www.w3.org/2000/svg">
<path d="M10.4248 6.71875V7.46875H6.07719V10.9492H5.17484V7.46875H0.88578V6.71875H10.4248ZM2.10453 5.45312V0.964844H3.01859V2.40625H8.26859V0.964844H9.19437V5.45312H2.10453ZM3.01859 4.70312H8.26859V3.15625H3.01859V4.70312ZM20.4759 5.76953V6.53125H10.9486V5.76953H15.2377V4.16406H16.14V5.76953H20.4759ZM11.5228 3.98828C13.3627 3.73633 15.2259 2.57617 15.2259 1.1875V0.695312H16.1517V1.1875C16.1517 2.57617 18.0267 3.73633 19.8666 3.98828L19.4916 4.72656C17.9154 4.45117 16.3451 3.61328 15.6947 2.41211C15.0384 3.625 13.474 4.45117 11.8744 4.72656L11.5228 3.98828ZM12.0033 8.28906V7.55078H19.2689V10.9492H18.3431V8.28906H12.0033ZM29.6364 0.542969V8.24219H28.7106V4.52734H26.402V3.75391H28.7106V0.542969H29.6364ZM21.1637 6.28516C23.5602 5.49414 25.2302 3.99414 25.4411 2.11328H21.6911V1.33984H26.4489C26.4372 4.01758 24.5212 6.05664 21.5622 7.02344L21.1637 6.28516ZM23.0036 10.7266V7.45703H23.9411V9.95312H29.9059V10.7266H23.0036ZM40.543 4.9375V5.6875H36.2422V6.71875H39.3242V9.05078H33.1367V10.1055H39.6406V10.832H32.2227V8.35938H38.4219V7.43359H32.1992V6.71875H35.3281V5.6875H31.0508V4.9375H40.543ZM32.2812 4.05859V0.882812H39.3125V4.05859H32.2812ZM33.1953 3.32031H38.3984V1.62109H33.1953V3.32031Z" fill="#B0B0B0"/>
</svg>
