<svg width="352" height="65" viewBox="0 0 352 65" fill="none" xmlns="http://www.w3.org/2000/svg">
<g filter="url(#filter0_d_193_7)">
<rect x="10" y="10" width="332" height="45" rx="10" fill="#F85C5C"/>
</g>
<path d="M128.389 24.2812V34.6406H126.655V29.8906H123.936V28.4531H126.655V24.2812H128.389ZM116.748 31.7656C119.787 30.8047 121.795 29 122.131 26.7656H117.483V25.3438H124.03C124.03 29.0703 121.569 31.8516 117.483 33.1562L116.748 31.7656ZM119.186 38.1094V33.5938H120.952V36.7031H128.748V38.1094H119.186ZM142.944 30V31.375H137.35V32.4375H141.335V35.9062H133.303V36.9375H141.725V38.2656H131.6V34.6562H139.632V33.75H131.585V32.4375H135.616V31.375H130.069V30H142.944ZM131.694 29.1094V24.7031H141.288V29.1094H131.694ZM133.397 27.75H139.553V26.0625H133.397V27.75ZM159.179 24.2656V38.3906H157.507V31.25H155.945V37.6719H154.32V24.5312H155.945V29.8281H157.507V24.2656H159.179ZM147.663 34.875V25.8906H149.413V33.3438C150.632 33.3203 151.96 33.2109 153.445 32.9219L153.617 34.4375C151.71 34.7734 150.093 34.875 148.601 34.875H147.663ZM173.453 32.4844V33.8594H167.828V38.3906H166.109V33.8594H160.547V32.4844H173.453ZM162.109 31.0156V24.8281H163.828V26.5625H170.14V24.8281H171.89V31.0156H162.109ZM163.828 29.6094H170.14V27.9375H163.828V29.6094ZM182.875 28.2812C182.875 30.5938 184.235 33.0312 186.516 33.9844L185.563 35.3594C183.891 34.6328 182.672 33.1562 182.024 31.3594C181.375 33.2969 180.133 34.9219 178.485 35.7031L177.485 34.3438C179.711 33.3125 181.102 30.6797 181.11 28.2812V27.0938H178V25.6562H185.969V27.0938H182.875V28.2812ZM187.547 38.3906V24.2656H189.297V38.3906H187.547ZM202.524 30.6875V32.0625H198.337V35.2969H203.962V36.7188H191.055V35.2969H196.618V32.0625H192.618V25.3125H202.415V26.7031H194.352V30.6875H202.524ZM220.947 35.2656V36.6875H208.04V35.2656H213.603V32.5156H209.462V25.2031H211.197V27.5156H217.743V25.2031H219.478V32.5156H215.322V35.2656H220.947ZM211.197 31.1094H217.743V28.9062H211.197V31.1094ZM233.345 24.2656V38.3906H231.595V24.2656H233.345ZM221.642 34.5C225.345 32.7422 227.048 30.3516 227.361 27.1406H222.361V25.7656H229.127C229.127 29.9688 227.494 33.5391 222.548 35.8906L221.642 34.5Z" fill="#FDFDFD"/>
<defs>
<filter id="filter0_d_193_7" x="0" y="0" width="352" height="65" filterUnits="userSpaceOnUse" color-interpolation-filters="sRGB">
<feFlood flood-opacity="0" result="BackgroundImageFix"/>
<feColorMatrix in="SourceAlpha" type="matrix" values="0 0 0 0 0 0 0 0 0 0 0 0 0 0 0 0 0 0 127 0" result="hardAlpha"/>
<feOffset/>
<feGaussianBlur stdDeviation="5"/>
<feComposite in2="hardAlpha" operator="out"/>
<feColorMatrix type="matrix" values="0 0 0 0 0 0 0 0 0 0 0 0 0 0 0 0 0 0 0.15 0"/>
<feBlend mode="normal" in2="BackgroundImageFix" result="effect1_dropShadow_193_7"/>
<feBlend mode="normal" in="SourceGraphic" in2="effect1_dropShadow_193_7" result="shape"/>
</filter>
</defs>
</svg>
