<svg width="35" height="35" viewBox="0 0 35 35" fill="none" xmlns="http://www.w3.org/2000/svg">
<g filter="url(#filter0_d_193_10)">
<rect x="4" y="4" width="27" height="27" rx="6" fill="#FDFDFD"/>
</g>
<path d="M26.216 12.6405C26.1265 12.5507 26.02 12.4794 25.9028 12.4307C25.7856 12.382 25.66 12.357 25.5331 12.357C25.4062 12.357 25.2806 12.382 25.1634 12.4307C25.0462 12.4794 24.9397 12.5507 24.8502 12.6405L22.3201 15.1703L19.8294 12.6799L22.3619 10.1485C22.543 9.96744 22.6448 9.72181 22.6448 9.46569C22.6448 9.20957 22.543 8.96395 22.3619 8.78284C22.1808 8.60174 21.9351 8.5 21.679 8.5C21.4228 8.5 21.1772 8.60174 20.996 8.78284L18.4636 11.3142L16.5747 9.42713C16.485 9.33746 16.3785 9.26633 16.2614 9.2178C16.1442 9.16927 16.0186 9.14429 15.8918 9.14429C15.6356 9.14429 15.39 9.24603 15.2088 9.42713C15.0277 9.60823 14.926 9.85386 14.926 10.11C14.926 10.3661 15.0277 10.6117 15.2088 10.7928L15.4908 11.0732L11.4648 15.1012C11.1365 15.4294 10.876 15.8191 10.6983 16.248C10.5206 16.6769 10.4292 17.1366 10.4292 17.6008C10.4292 18.0651 10.5206 18.5247 10.6983 18.9536C10.876 19.3825 11.1365 19.7722 11.4648 20.1004L12.4996 21.1352L8.78288 24.8515C8.69319 24.9411 8.62205 25.0476 8.57352 25.1648C8.52498 25.2819 8.5 25.4075 8.5 25.5343C8.5 25.6611 8.52498 25.7867 8.57352 25.9039C8.62205 26.021 8.69319 26.1275 8.78288 26.2172C8.964 26.3983 9.20966 26.5 9.46581 26.5C9.59264 26.5 9.71823 26.475 9.8354 26.4265C9.95258 26.378 10.0591 26.3068 10.1487 26.2172L13.8655 22.5009L14.9003 23.5356C15.2286 23.8639 15.6183 24.1243 16.0473 24.3019C16.4762 24.4796 16.9359 24.5711 17.4002 24.5711C17.8645 24.5711 18.3243 24.4796 18.7532 24.3019C19.1821 24.1243 19.5719 23.8639 19.9001 23.5356L23.927 19.5084L24.209 19.7912C24.2987 19.8808 24.4052 19.952 24.5224 20.0005C24.6395 20.049 24.7651 20.074 24.8919 20.074C25.0188 20.074 25.1444 20.049 25.2615 20.0005C25.3787 19.952 25.4852 19.8808 25.5749 19.7912C25.6646 19.7015 25.7357 19.595 25.7842 19.4779C25.8328 19.3607 25.8578 19.2351 25.8578 19.1083C25.8578 18.9815 25.8328 18.8559 25.7842 18.7388C25.7357 18.6216 25.6646 18.5151 25.5749 18.4255L23.686 16.536L26.2184 14.0046C26.3079 13.9149 26.3788 13.8085 26.4272 13.6914C26.4755 13.5743 26.5002 13.4488 26.5 13.3221C26.4998 13.1954 26.4746 13.07 26.4259 12.953C26.3771 12.8361 26.3058 12.7299 26.216 12.6405ZM18.5351 22.1707C18.3859 22.3199 18.2087 22.4384 18.0137 22.5191C17.8187 22.5999 17.6097 22.6415 17.3986 22.6415C17.1875 22.6415 16.9785 22.5999 16.7835 22.5191C16.5885 22.4384 16.4114 22.3199 16.2621 22.1707L12.8282 18.7372C12.6789 18.588 12.5605 18.4108 12.4797 18.2158C12.3989 18.0209 12.3573 17.8119 12.3573 17.6008C12.3573 17.3898 12.3989 17.1808 12.4797 16.9858C12.5605 16.7908 12.6789 16.6137 12.8282 16.4645L16.8567 12.4389L22.5612 18.1427L18.5351 22.1707Z" fill="#F85C5C"/>
<defs>
<filter id="filter0_d_193_10" x="0" y="0" width="35" height="35" filterUnits="userSpaceOnUse" color-interpolation-filters="sRGB">
<feFlood flood-opacity="0" result="BackgroundImageFix"/>
<feColorMatrix in="SourceAlpha" type="matrix" values="0 0 0 0 0 0 0 0 0 0 0 0 0 0 0 0 0 0 127 0" result="hardAlpha"/>
<feOffset/>
<feGaussianBlur stdDeviation="2"/>
<feComposite in2="hardAlpha" operator="out"/>
<feColorMatrix type="matrix" values="0 0 0 0 0 0 0 0 0 0 0 0 0 0 0 0 0 0 0.15 0"/>
<feBlend mode="normal" in2="BackgroundImageFix" result="effect1_dropShadow_193_10"/>
<feBlend mode="normal" in="SourceGraphic" in2="effect1_dropShadow_193_10" result="shape"/>
</filter>
</defs>
</svg>
